<svg width="147" height="60" viewBox="0 0 147 60" fill="none" xmlns="http://www.w3.org/2000/svg">
<g clip-path="url(#clip0_4303_11946)">
<path d="M53.7476 32.9541V38.7039L56.1486 43.0691C56.1908 42.641 56.2098 42.2074 56.2098 41.7685V30.4031L53.7476 32.9528V32.9541ZM41.9658 0H14.2454C6.39042 0 0 6.36078 0 14.1793V41.7698C0 49.5884 6.39042 55.9492 14.2454 55.9492H16.1754L18.4172 53.4983H14.2454C7.74881 53.4983 2.46225 48.2376 2.46225 41.7698V14.1793C2.46225 7.71287 7.74744 2.45083 14.2454 2.45083H41.9658C48.461 2.45083 53.7476 7.71152 53.7476 14.1793V20.509H56.2098V14.1793C56.2098 6.36078 49.8208 0 41.9658 0ZM50.9859 49.3052C48.8244 51.8671 45.5823 53.4983 41.9658 53.4983H34.5355L32.3441 55.9492H41.9658C47.0414 55.9492 51.5044 53.2937 54.0279 49.3052H50.9872H50.9859Z" fill="white"/>
<path d="M42.2331 17.149L43.7984 9.67188H18.3402L11.2461 43.1124H27.9197L34.7593 35.6339H22.6195L23.767 30.1822H33.5887L29.9845 23.6019L29.4373 22.6007H25.384L26.5845 17.149H42.2345H42.2331Z" fill="white"/>
<path d="M53.7495 29.9358L49.1489 34.6993L53.691 42.9541L55.4904 46.226L56.0334 47.2136H45.2875L42.2617 41.7091L31.724 53.4985L29.534 55.9494L25.9134 60.0002H15.3145L19.0208 55.9494L21.2611 53.4985L30.7603 43.1113L37.5999 35.6328L38.4547 34.6993L35.9802 30.1811L31.8288 22.5996H42.4713L45.2358 27.7926L50.2446 22.5996H60.8327L56.2118 27.3861L53.7495 29.9358Z" fill="white"/>
<path d="M66.4473 38.7926L70.879 17.9043H81.7952C83.2937 17.9043 84.5378 18.1698 85.526 18.6996C86.5141 19.2293 87.2532 19.9595 87.7418 20.8889C88.2305 21.8183 88.4755 22.8669 88.4755 24.0348C88.4755 24.597 88.4102 25.1918 88.2795 25.819C87.8017 28.2414 86.7755 30.1544 85.2007 31.5607C83.6259 32.967 81.459 33.6687 78.7 33.6687H74.5295L73.4543 38.7939H66.4486L66.4473 38.7926ZM75.7015 28.2509H78.2427C79.1764 28.2509 79.8556 28.0287 80.2789 27.5857C80.7022 27.1427 80.9907 26.5533 81.1418 25.8177C81.2072 25.4939 81.2398 25.1904 81.2398 24.91C81.2398 24.4128 81.0983 24.0239 80.8165 23.7421C80.5334 23.4617 80.0665 23.3208 79.4159 23.3208H76.7441L75.7015 28.2509Z" fill="white"/>
<path d="M93.1358 39.1156C91.3977 39.1156 90.0189 38.6509 88.998 37.7215C87.9772 36.7921 87.4668 35.4725 87.4668 33.7641C87.4668 33.4403 87.4831 33.1044 87.5158 32.7589C87.5485 32.4134 87.6084 32.0666 87.6955 31.7211C88.2821 28.8665 89.4173 26.7151 91.101 25.2668C92.7847 23.8186 94.7447 23.0938 96.9823 23.0938C97.8507 23.0938 98.568 23.2076 99.1329 23.4338C99.6977 23.6614 100.132 23.9256 100.437 24.2291L100.6 23.4175H107.606L104.347 38.7918H98.2863L98.1883 37.689C97.4927 38.1429 96.7428 38.4951 95.9397 38.743C95.1353 38.991 94.2016 39.1156 93.1372 39.1156H93.1358ZM96.427 34.1205C96.883 34.1205 97.2845 34.0554 97.6329 33.9254C97.98 33.7953 98.2631 33.6232 98.4796 33.4065L99.4568 28.7676C99.3044 28.5522 99.1029 28.3897 98.8539 28.2813C98.6034 28.1729 98.2836 28.1187 97.8929 28.1187C97.0885 28.1187 96.4365 28.4262 95.9384 29.0427C95.4388 29.6591 95.0686 30.5506 94.8304 31.7184C94.8086 31.9135 94.7814 32.091 94.7487 32.2535C94.7161 32.4161 94.6997 32.5611 94.6997 32.6911C94.6997 33.2317 94.8508 33.6056 95.1557 33.8102C95.4592 34.0161 95.8839 34.1177 96.427 34.1177V34.1205Z" fill="white"/>
<path d="M112.328 44.5003C111.981 44.5003 111.491 44.4841 110.862 44.4516C110.232 44.4191 109.618 44.3757 109.02 44.3215C108.423 44.2673 107.983 44.2185 107.7 44.1752L108.71 39.4727C109.144 39.5811 109.709 39.6786 110.405 39.764C111.1 39.8507 111.709 39.894 112.23 39.894C114.033 39.894 115.325 39.7694 116.108 39.5215C116.89 39.2722 117.357 38.8779 117.508 38.3374L117.574 38.0772C117.096 38.294 116.498 38.4823 115.781 38.6449C115.064 38.8075 114.39 38.8888 113.761 38.8888C111.979 38.8888 110.514 38.462 109.362 37.6071C108.211 36.7536 107.635 35.3852 107.635 33.5034C107.635 32.8342 107.711 32.131 107.863 31.3954C108.407 28.7142 109.449 26.6603 110.991 25.2324C112.533 23.8058 114.553 23.0918 117.052 23.0918C117.986 23.0918 118.785 23.2219 119.448 23.4806C120.111 23.7407 120.659 24.0862 121.093 24.5184L121.647 23.4156H127.708L124.939 36.3892C124.568 38.0976 123.929 39.5567 123.015 40.7679C122.103 41.9791 120.789 42.903 119.072 43.5411C117.356 44.1793 115.107 44.4976 112.327 44.4976L112.328 44.5003ZM116.564 34.0562C117.325 34.0562 117.997 33.8408 118.584 33.4072L119.561 28.8334C119.148 28.3579 118.604 28.1195 117.932 28.1195C117.084 28.1195 116.443 28.3796 116.008 28.8985C115.574 29.4174 115.237 30.2397 114.998 31.3642C114.955 31.6243 114.917 31.8614 114.884 32.0782C114.851 32.295 114.835 32.4887 114.835 32.6621C114.835 33.2243 114.982 33.5969 115.275 33.7812C115.569 33.9654 115.996 34.0575 116.562 34.0575L116.564 34.0562Z" fill="white"/>
<path d="M135.628 39.1156C133.065 39.1156 131.114 38.6076 129.779 37.5915C128.442 36.5754 127.775 35.1162 127.775 33.2127C127.775 32.8889 127.792 32.5475 127.824 32.1912C127.857 31.8349 127.917 31.4718 128.004 31.1047C128.569 28.4669 129.72 26.4726 131.459 25.1205C133.197 23.7698 135.727 23.0938 139.051 23.0938C141.657 23.0938 143.634 23.6072 144.981 24.6342C146.327 25.6611 147.001 27.1365 147.001 29.0616C147.001 29.3854 146.979 29.716 146.936 30.0506C146.892 30.3866 146.838 30.7375 146.772 31.1047C146.229 33.7425 145.072 35.7381 143.302 37.0888C141.531 38.4409 138.973 39.1156 135.628 39.1156ZM136.704 34.0879C137.487 34.0879 138.116 33.8603 138.595 33.4065C139.073 32.9526 139.42 32.1845 139.637 31.1033C139.768 30.5411 139.833 30.0764 139.833 29.7092C139.833 29.147 139.686 28.7419 139.394 28.4926C139.101 28.2447 138.628 28.1201 137.977 28.1201C137.216 28.1201 136.613 28.3477 136.168 28.8015C135.723 29.2554 135.38 30.0235 135.142 31.1047C135.011 31.6886 134.946 32.175 134.946 32.5638C134.946 33.1044 135.086 33.4932 135.369 33.7316C135.651 33.9701 136.097 34.0879 136.706 34.0879H136.704Z" fill="white"/>
<path d="M66.0697 48.5945L67.6922 40.9453H72.8834L72.7283 41.7175H68.5156L67.9426 44.3906H71.7251L71.5577 45.1506H67.7752L67.2022 47.8345H71.4148L71.2596 48.5945H66.0684H66.0697Z" fill="white"/>
<path d="M71.7988 48.5954L74.5551 45.7327L73.0633 42.9648H74.125L75.2234 45.0675L77.216 42.9648H78.2668L75.6304 45.7327L77.1575 48.5954H76.0959L74.9389 46.3979L72.8632 48.5954H71.8016H71.7988Z" fill="white"/>
<path d="M77.9291 51.1601L79.6713 42.9649H80.507L80.4594 43.5583C80.7697 43.3131 81.0937 43.1329 81.4312 43.0178C81.7688 42.9026 82.1485 42.8457 82.5705 42.8457C83.3341 42.8457 83.9017 43.0814 84.2705 43.5529C84.6407 44.0244 84.7183 44.7709 84.5033 45.7924C84.28 46.8058 83.9044 47.5469 83.3763 48.0129C82.8468 48.4803 82.1567 48.7133 81.306 48.7133C80.5656 48.7133 79.9776 48.5345 79.5393 48.1782L78.9064 51.1601H77.9277H77.9291ZM81.2107 47.9289C81.8477 47.9289 82.35 47.765 82.7202 47.4358C83.0904 47.1079 83.3586 46.5592 83.526 45.791C83.6852 45.054 83.6716 44.5108 83.4838 44.1585C83.2973 43.8063 82.8536 43.6301 82.1526 43.6301C81.4517 43.6301 80.8882 43.8564 80.3628 44.3075L79.7067 47.3721C79.866 47.5469 80.0701 47.6823 80.3219 47.7812C80.5724 47.8801 80.8691 47.9303 81.2107 47.9303V47.9289Z" fill="white"/>
<path d="M85.3535 48.5947L86.5472 42.9655H87.4306L87.3475 43.6781C87.6742 43.4966 88.039 43.33 88.446 43.1796C88.8516 43.0292 89.2449 42.9181 89.6274 42.8477L89.4722 43.6077C89.234 43.6551 88.9754 43.7201 88.6964 43.8041C88.4174 43.8868 88.1492 43.9803 87.8906 44.0832C87.632 44.1862 87.4115 44.2932 87.2278 44.4043L86.3322 48.5974H85.3535V48.5947Z" fill="white"/>
<path d="M91.9983 48.7133C91.0197 48.7133 90.3241 48.4722 89.9104 47.9885C89.4966 47.5062 89.3972 46.7611 89.6123 45.7558C89.811 44.8535 90.1744 44.1422 90.7039 43.6234C91.2334 43.1045 91.9792 42.8457 92.9415 42.8457C93.4982 42.8457 93.9379 42.946 94.2605 43.1492C94.583 43.351 94.7954 43.6288 94.8988 43.981C95.0023 44.3333 95.0064 44.7316 94.9111 45.1746L94.6838 46.2313H90.4956C90.4398 46.6595 90.4534 46.9955 90.5378 47.2407C90.6209 47.4859 90.8087 47.662 91.0986 47.769C91.3885 47.8761 91.8091 47.9289 92.3576 47.9289C92.9388 47.9289 93.4955 47.83 94.0277 47.6322L93.8603 48.3923C93.5894 48.4952 93.2954 48.5751 92.9769 48.6293C92.6584 48.6849 92.3331 48.712 91.9983 48.712V48.7133ZM90.6385 45.5296H93.9556L94.0631 45.0662C94.1584 44.6069 94.123 44.252 93.9556 44.0027C93.7882 43.7534 93.403 43.6288 92.7986 43.6288C92.1548 43.6288 91.6675 43.7873 91.3368 44.1043C91.006 44.4213 90.7733 44.8969 90.6385 45.5296Z" fill="white"/>
<path d="M97.2987 48.7133C96.9653 48.7133 96.6318 48.6876 96.3024 48.6361C95.9717 48.5846 95.6994 48.5237 95.4844 48.4519L95.664 47.597C96.1894 47.7867 96.7502 47.8815 97.3464 47.8815C97.8473 47.8815 98.2175 47.8287 98.4557 47.7216C98.6939 47.6146 98.845 47.4154 98.9089 47.1214C98.9566 46.9074 98.9334 46.7448 98.8368 46.6351C98.7415 46.524 98.5863 46.4251 98.3713 46.3384C98.1562 46.2517 97.8786 46.1487 97.5356 46.0295C97.2334 45.9184 96.9693 45.7978 96.742 45.6678C96.5147 45.5377 96.3528 45.3724 96.2534 45.1746C96.154 44.9768 96.1404 44.7153 96.2112 44.3902C96.3228 43.8916 96.5637 43.5096 96.9326 43.244C97.3028 42.9785 97.9085 42.8457 98.7524 42.8457C99.0546 42.8457 99.3404 42.8674 99.6113 42.9107C99.8821 42.9541 100.112 43.0083 100.303 43.0706L100.123 43.9255C99.6616 43.7588 99.1961 43.6762 98.7265 43.6762C98.257 43.6762 97.899 43.7263 97.6526 43.8252C97.4063 43.9241 97.2511 44.1084 97.1871 44.378C97.1477 44.5609 97.1653 44.7045 97.2402 44.8115C97.3151 44.9185 97.4512 45.0093 97.6458 45.0852C97.8405 45.1611 98.0936 45.2532 98.404 45.3643C99.0165 45.5621 99.4425 45.7816 99.6807 46.0241C99.9189 46.2652 99.9869 46.6283 99.8835 47.1106C99.7637 47.6647 99.5092 48.0712 99.1199 48.3286C98.7306 48.586 98.1208 48.7147 97.2947 48.7147L97.2987 48.7133Z" fill="white"/>
<path d="M102.439 48.7133C102.106 48.7133 101.772 48.6876 101.443 48.6361C101.112 48.5846 100.84 48.5237 100.625 48.4519L100.805 47.597C101.33 47.7867 101.891 47.8815 102.487 47.8815C102.988 47.8815 103.358 47.8287 103.596 47.7216C103.835 47.6146 103.986 47.4154 104.05 47.1214C104.097 46.9074 104.074 46.7448 103.977 46.6351C103.882 46.524 103.727 46.4251 103.512 46.3384C103.297 46.2517 103.019 46.1487 102.676 46.0295C102.374 45.9184 102.11 45.7978 101.883 45.6678C101.655 45.5377 101.493 45.3724 101.394 45.1746C101.295 44.9768 101.281 44.7153 101.352 44.3902C101.463 43.8916 101.704 43.5096 102.073 43.244C102.443 42.9785 103.049 42.8457 103.893 42.8457C104.195 42.8457 104.481 42.8674 104.752 42.9107C105.023 42.9541 105.253 43.0083 105.443 43.0706L105.264 43.9255C104.802 43.7588 104.337 43.6762 103.867 43.6762C103.398 43.6762 103.04 43.7263 102.793 43.8252C102.547 43.9241 102.392 44.1084 102.328 44.378C102.288 44.5609 102.306 44.7045 102.381 44.8115C102.456 44.9185 102.592 45.0093 102.786 45.0852C102.981 45.1611 103.234 45.2532 103.545 45.3643C104.157 45.5621 104.583 45.7816 104.821 46.0241C105.06 46.2652 105.128 46.6283 105.024 47.1106C104.904 47.6647 104.65 48.0712 104.261 48.3286C103.871 48.586 103.261 48.7147 102.435 48.7147L102.439 48.7133Z" fill="white"/>
</g>
<defs>
<clipPath id="clip0_4303_11946">
<rect width="147" height="60" fill="white"/>
</clipPath>
</defs>
</svg>
