<svg width="14" height="14" viewBox="0 0 14 14" fill="none" xmlns="http://www.w3.org/2000/svg">
<path d="M1.32592 3.28125C1.80504 2.85748 2.42286 2.62401 3.0625 2.625H10.9375C11.6031 2.625 12.2109 2.87292 12.6741 3.28125C12.6208 2.8583 12.415 2.46934 12.0952 2.1874C11.7755 1.90546 11.3638 1.74992 10.9375 1.75H3.0625C2.6362 1.74992 2.22454 1.90546 1.90479 2.1874C1.58504 2.46934 1.3792 2.8583 1.32592 3.28125ZM1.32592 5.03125C1.80504 4.60748 2.42286 4.37401 3.0625 4.375H10.9375C11.6031 4.375 12.2109 4.62292 12.6741 5.03125C12.6208 4.6083 12.415 4.21934 12.0952 3.9374C11.7755 3.65546 11.3638 3.49992 10.9375 3.5H3.0625C2.6362 3.49992 2.22454 3.65546 1.90479 3.9374C1.58504 4.21934 1.3792 4.6083 1.32592 5.03125ZM3.0625 5.25C2.59837 5.25 2.15325 5.43437 1.82506 5.76256C1.49687 6.09075 1.3125 6.53587 1.3125 7V10.5C1.3125 10.9641 1.49687 11.4092 1.82506 11.7374C2.15325 12.0656 2.59837 12.25 3.0625 12.25H10.9375C11.4016 12.25 11.8467 12.0656 12.1749 11.7374C12.5031 11.4092 12.6875 10.9641 12.6875 10.5V7C12.6875 6.53587 12.5031 6.09075 12.1749 5.76256C11.8467 5.43437 11.4016 5.25 10.9375 5.25H8.75C8.63397 5.25 8.52269 5.29609 8.44064 5.37814C8.35859 5.46019 8.3125 5.57147 8.3125 5.6875C8.3125 6.0356 8.17422 6.36944 7.92808 6.61558C7.68194 6.86172 7.3481 7 7 7C6.6519 7 6.31806 6.86172 6.07192 6.61558C5.82578 6.36944 5.6875 6.0356 5.6875 5.6875C5.6875 5.57147 5.64141 5.46019 5.55936 5.37814C5.47731 5.29609 5.36603 5.25 5.25 5.25H3.0625Z" fill="#5C4896"/>
</svg>
