<svg width="16" height="16" viewBox="0 0 16 16" fill="none" xmlns="http://www.w3.org/2000/svg">
<path fill-rule="evenodd" clip-rule="evenodd" d="M5.60156 1.59961C5.81374 1.59961 6.01722 1.68389 6.16725 1.83392C6.31728 1.98395 6.40156 2.18744 6.40156 2.39961V3.19961H8.80156C9.01374 3.19961 9.21722 3.28389 9.36725 3.43392C9.51728 3.58395 9.60156 3.78744 9.60156 3.99961C9.60156 4.21178 9.51728 4.41527 9.36725 4.56529C9.21722 4.71532 9.01374 4.79961 8.80156 4.79961H7.66396C7.37874 6.13063 6.9148 7.41695 6.28476 8.62361C6.51676 8.90681 6.76156 9.18041 7.01596 9.44441C7.08892 9.52005 7.14627 9.60932 7.18474 9.70713C7.2232 9.80493 7.24202 9.90936 7.24012 10.0144C7.23823 10.1195 7.21566 10.2232 7.1737 10.3195C7.13173 10.4159 7.0712 10.503 6.99556 10.576C6.91992 10.649 6.83065 10.7063 6.73284 10.7448C6.63504 10.7832 6.53062 10.8021 6.42554 10.8002C6.32046 10.7983 6.21678 10.7757 6.12043 10.7337C6.02407 10.6918 5.93692 10.6313 5.86396 10.5556C5.71356 10.3988 5.56556 10.2388 5.42076 10.0756C4.71369 11.1261 3.87875 12.0847 2.93516 12.9292C2.77675 13.0684 2.56977 13.1394 2.35926 13.1268C2.14875 13.1142 1.95173 13.019 1.81106 12.8619C1.6704 12.7048 1.59746 12.4985 1.60811 12.2878C1.61877 12.0772 1.71216 11.8793 1.86796 11.7372C2.84098 10.8664 3.68421 9.86076 4.37196 8.75081C3.92509 8.11707 3.5274 7.45006 3.18236 6.75561C3.13173 6.66119 3.10058 6.55757 3.09076 6.45089C3.08093 6.34421 3.09263 6.23664 3.12517 6.13457C3.15771 6.0325 3.21041 5.938 3.28016 5.85668C3.34991 5.77537 3.43529 5.70889 3.53122 5.66119C3.62714 5.61349 3.73168 5.58555 3.83861 5.57902C3.94554 5.57249 4.0527 5.5875 4.15372 5.62317C4.25474 5.65883 4.34757 5.71443 4.4267 5.78665C4.50583 5.85887 4.56964 5.94625 4.61436 6.04361C4.80156 6.41961 5.00556 6.78601 5.22556 7.14121C5.55916 6.39401 5.82716 5.61081 6.02316 4.79961H2.40156C2.18939 4.79961 1.98591 4.71532 1.83588 4.56529C1.68585 4.41527 1.60156 4.21178 1.60156 3.99961C1.60156 3.78744 1.68585 3.58395 1.83588 3.43392C1.98591 3.28389 2.18939 3.19961 2.40156 3.19961H4.80156V2.39961C4.80156 2.18744 4.88585 1.98395 5.03588 1.83392C5.18591 1.68389 5.38939 1.59961 5.60156 1.59961ZM10.4016 6.39961C10.5501 6.39969 10.6957 6.44112 10.822 6.51925C10.9483 6.59739 11.0504 6.70914 11.1168 6.84201L13.5096 11.6276C13.5151 11.6373 13.5205 11.6472 13.5256 11.6572L14.3176 13.2412C14.4125 13.4311 14.4281 13.6509 14.361 13.8524C14.2939 14.0538 14.1495 14.2203 13.9596 14.3152C13.7697 14.4102 13.5498 14.4258 13.3484 14.3586C13.147 14.2915 12.9805 14.1471 12.8856 13.9572L12.308 12.7996H8.49676L7.91756 13.9572C7.87263 14.0545 7.80862 14.1417 7.72933 14.2138C7.65005 14.2858 7.55709 14.3412 7.45599 14.3767C7.35488 14.4121 7.24769 14.4269 7.14076 14.4201C7.03384 14.4134 6.92936 14.3852 6.83354 14.3373C6.73771 14.2893 6.65248 14.2227 6.58291 14.1412C6.51334 14.0597 6.46085 13.9651 6.42854 13.8629C6.39623 13.7608 6.38478 13.6532 6.39485 13.5465C6.40492 13.4399 6.43631 13.3363 6.48716 13.242L7.27916 11.658L7.29436 11.6276L9.68636 6.84201C9.75275 6.70914 9.85483 6.59739 9.98114 6.51925C10.1075 6.44112 10.253 6.39969 10.4016 6.39961ZM9.29596 11.1996H11.5072L10.4016 8.98841L9.29596 11.1996Z" fill="#414651"/>
</svg>
