<svg width="15" height="15" viewBox="0 0 15 15" fill="none" xmlns="http://www.w3.org/2000/svg">
<path d="M7.50116 0.46875C6.3665 0.468495 5.26343 0.842518 4.36293 1.53285C3.46243 2.22318 2.81478 3.19127 2.52036 4.28706C2.22594 5.38286 2.30119 6.54518 2.73445 7.59387C3.16771 8.64256 3.93479 9.51905 4.91679 10.0875C5.34554 10.3362 5.61366 10.7175 5.62554 11.1019C5.62881 11.2048 5.66591 11.3038 5.7311 11.3836C5.79628 11.4634 5.88592 11.5194 5.98616 11.5431C6.20616 11.595 6.42991 11.6356 6.65741 11.665C6.85929 11.6906 7.03241 11.5288 7.03241 11.325V8.41187C6.83492 8.39016 6.63922 8.35444 6.44679 8.305C6.38716 8.28965 6.33114 8.26271 6.28192 8.22571C6.2327 8.18871 6.19126 8.14238 6.15995 8.08937C6.12864 8.03635 6.10807 7.97768 6.09944 7.91672C6.0908 7.85576 6.09425 7.79369 6.1096 7.73406C6.12495 7.67443 6.15189 7.61841 6.18889 7.5692C6.22589 7.51998 6.27222 7.47853 6.32523 7.44722C6.37825 7.41591 6.43691 7.39535 6.49788 7.38671C6.55884 7.37807 6.62091 7.38153 6.68054 7.39687C7.21882 7.53561 7.7835 7.53561 8.32179 7.39687C8.38201 7.37952 8.44511 7.37442 8.50735 7.38188C8.56958 7.38934 8.62969 7.4092 8.68411 7.4403C8.73853 7.47139 8.78617 7.51308 8.82419 7.56291C8.86222 7.61273 8.88987 7.66968 8.9055 7.73038C8.92114 7.79108 8.92444 7.85429 8.91522 7.91629C8.90599 7.97829 8.88443 8.0378 8.8518 8.09132C8.81917 8.14484 8.77614 8.19127 8.72525 8.22786C8.67436 8.26446 8.61665 8.29047 8.55554 8.30437C8.36312 8.35403 8.16742 8.38996 7.96991 8.41187V11.3244C7.96991 11.5287 8.14304 11.6906 8.34491 11.665C8.57241 11.6356 8.79616 11.595 9.01616 11.5431C9.1164 11.5194 9.20604 11.4634 9.27123 11.3836C9.33641 11.3038 9.37351 11.2048 9.37679 11.1019C9.38929 10.7175 9.65679 10.3362 10.0855 10.0875C11.0675 9.51905 11.8346 8.64256 12.2679 7.59387C12.7011 6.54518 12.7764 5.38286 12.482 4.28706C12.1875 3.19127 11.5399 2.22318 10.6394 1.53285C9.73889 0.842518 8.63582 0.468495 7.50116 0.46875Z" fill="#5C4896"/>
<path fill-rule="evenodd" clip-rule="evenodd" d="M5.63314 12.4378C5.64462 12.3773 5.66791 12.3197 5.70167 12.2682C5.73543 12.2167 5.779 12.1723 5.8299 12.1377C5.8808 12.103 5.93803 12.0787 5.99832 12.0662C6.05861 12.0537 6.12078 12.0532 6.18127 12.0647C7.05266 12.23 7.94738 12.23 8.81877 12.0647C8.88 12.0512 8.94331 12.0501 9.00495 12.0616C9.0666 12.073 9.12533 12.0967 9.17766 12.1312C9.22999 12.1657 9.27487 12.2104 9.30964 12.2625C9.3444 12.3147 9.36834 12.3733 9.38005 12.4349C9.39176 12.4965 9.39099 12.5598 9.3778 12.6211C9.3646 12.6824 9.33925 12.7404 9.30323 12.7917C9.26721 12.8431 9.22127 12.8866 9.16811 12.9199C9.11496 12.9531 9.05567 12.9754 8.99377 12.9853C8.00674 13.1726 6.99329 13.1726 6.00627 12.9853C5.88422 12.9621 5.77636 12.8914 5.7064 12.7888C5.63644 12.6861 5.61009 12.5599 5.63314 12.4378ZM6.09627 13.9653C6.10267 13.9041 6.12106 13.8447 6.15041 13.7906C6.17975 13.7365 6.21947 13.6886 6.26729 13.6499C6.31511 13.6111 6.37011 13.5821 6.42913 13.5646C6.48815 13.5471 6.55004 13.5414 6.61127 13.5478C7.20216 13.6095 7.79788 13.6095 8.38877 13.5478C8.51243 13.5349 8.63615 13.5716 8.73274 13.6499C8.82932 13.7282 8.89084 13.8416 8.90377 13.9653C8.9167 14.089 8.87998 14.2127 8.80168 14.3093C8.72338 14.4058 8.60993 14.4674 8.48627 14.4803C7.83056 14.5489 7.16948 14.5489 6.51377 14.4803C6.45254 14.4739 6.39317 14.4555 6.33905 14.4262C6.28493 14.3968 6.23711 14.3571 6.19835 14.3093C6.15958 14.2615 6.13061 14.2065 6.11309 14.1474C6.09558 14.0884 6.08986 14.0265 6.09627 13.9653Z" fill="#5C4896"/>
</svg>
